# xmcd CD database file
#
# Track frame offsets:
#	150
#	20520
#	45188
#	70318
#	91957
#	111251
#	124191
#	152790
#	174526
#	195495
#	215066
#
# Disc length: 3170 seconds
#
# Revision: 1
# Processed by: cddbd v1.5.2PL0 Copyright (c) Steve Scherf et al.
# Submitted via: CDex 1.51
#
DISCID=940c600b
DTITLE=Karl Seglem - femstein
DYEAR=2004
DGENRE=Jazz
TTITLE0=bla botn
TTITLE1=femstein
TTITLE2=ritualet
TTITLE3=nye sva
TTITLE4=bal
TTITLE5=urein
TTITLE6=ut
TTITLE7=utlaen
TTITLE8=rorsle
TTITLE9=edvarden
TTITLE10=salmen
EXTD=YEAR: 2004
EXTT0=
EXTT1=
EXTT2=
EXTT3=
EXTT4=
EXTT5=
EXTT6=
EXTT7=
EXTT8=
EXTT9=
EXTT10=
PLAYORDER=
